<svg xmlns="http://www.w3.org/2000/svg" xmlns:xlink="http://www.w3.org/1999/xlink" version="1.1" x="0px" y="0px" viewBox="0 0 64 64" enable-background="new 0 0 64 64" xml:space="preserve"><g display="none"><rect x="-84.975" y="-321.685" display="inline" fill="#000000" width="791.333" height="440"></rect></g><g display="none"><rect x="14.212" y="42.659" display="inline" width="2.748" height="5.485"></rect><rect x="18.677" y="39.525" display="inline" width="2.748" height="8.619"></rect><rect x="23.142" y="35.999" display="inline" width="2.748" height="12.145"></rect><rect x="27.607" y="32.473" display="inline" width="2.748" height="15.671"></rect><rect x="32.072" y="39.525" display="inline" width="2.748" height="8.619"></rect><path display="inline" d="M49.788,47.3c-0.728,0.493-1.947,0.986-3.496,0.986c-1.902,0-3.591-0.728-4.764-2.089   c-0.892-0.986-1.479-2.346-1.69-4.036h-1.455v-1.15h1.338c0-0.117,0-0.234,0-0.352c0-0.375,0.023-0.728,0.047-1.055h-1.385v-1.174   h1.55c0.281-1.642,0.986-3.004,1.923-3.966c1.197-1.244,2.723-1.947,4.647-1.947c1.384,0,2.464,0.399,3.12,0.75l-0.469,1.549   c-0.586-0.352-1.572-0.657-2.628-0.657c-1.267,0-2.299,0.445-3.097,1.291c-0.704,0.681-1.173,1.736-1.408,2.98h6.548v1.174h-6.759   c-0.023,0.305-0.047,0.657-0.047,0.986c0,0.141,0,0.258,0,0.422h6.806v1.15h-6.641c0.187,1.361,0.657,2.371,1.291,3.075   c0.868,0.915,2.042,1.361,3.309,1.361c1.244,0,2.323-0.469,2.863-0.774L49.788,47.3z"></path><g display="inline"><g><path d="M32,10.432l23.177,16.544V62H8.823V26.975L32,10.432 M32,7.974L6.823,25.946V64h50.355V25.946L32,7.974L32,7.974z"></path></g><path d="M51.658,14.06V6.158L45.5,0c0,0,0,5.751,0,9.656L32,0L2.027,21.438v4.877L32,4.877l29.973,21.438v-4.877L51.658,14.06z"></path></g></g><g><g><path d="M51.658,6.158L45.5,0c0,0,0,5.751,0,9.656L32,0L2.027,21.438v4.877L32,4.877l29.973,21.438v-4.877L51.658,14.06V6.158z"></path><path d="M6.823,25.945V64h50.355V25.945L32,7.974L6.823,25.945z M16.96,48.144h-2.748v-5.485h2.748V48.144z M21.425,48.144h-2.748    v-8.619h2.748V48.144z M25.89,48.144h-2.748V35.999h2.748V48.144z M30.355,48.144h-2.748V32.473h2.748V48.144z M38.383,41.01    h1.339c0-0.117,0-0.234,0-0.352c0-0.375,0.023-0.728,0.047-1.055h-1.385v-1.174h1.55c0.281-1.642,0.986-3.004,1.923-3.966    c1.197-1.244,2.723-1.947,4.647-1.947c1.384,0,2.464,0.399,3.12,0.75l-0.469,1.549c-0.586-0.352-1.572-0.657-2.628-0.657    c-1.267,0-2.299,0.445-3.097,1.291c-0.704,0.681-1.173,1.736-1.408,2.98h6.548v1.174h-6.759c-0.023,0.305-0.047,0.657-0.047,0.986    c0,0.141,0,0.258,0,0.422h6.806v1.15h-6.641c0.187,1.361,0.657,2.371,1.291,3.075c0.868,0.915,2.042,1.361,3.309,1.361    c1.244,0,2.323-0.469,2.863-0.774l0.399,1.478c-0.728,0.493-1.947,0.986-3.496,0.986c-1.902,0-3.591-0.728-4.764-2.089    c-0.892-0.986-1.479-2.346-1.69-4.036h-1.455V41.01z M32.072,39.525h2.748v8.619h-2.748V39.525z"></path></g></g><g display="none"><rect x="14.212" y="42.659" display="inline" width="2.748" height="5.485"></rect><rect x="18.677" y="39.525" display="inline" width="2.748" height="8.619"></rect><rect x="23.142" y="35.999" display="inline" width="2.748" height="12.145"></rect><rect x="27.607" y="32.473" display="inline" width="2.748" height="15.671"></rect><rect x="32.072" y="39.525" display="inline" width="2.748" height="8.619"></rect><path display="inline" d="M49.788,47.3c-0.728,0.493-1.947,0.986-3.496,0.986c-1.902,0-3.591-0.728-4.764-2.089   c-0.892-0.986-1.479-2.346-1.69-4.036h-1.455v-1.15h1.338c0-0.117,0-0.234,0-0.352c0-0.375,0.023-0.728,0.047-1.055h-1.385v-1.174   h1.55c0.281-1.642,0.986-3.004,1.923-3.966c1.197-1.244,2.723-1.947,4.647-1.947c1.384,0,2.464,0.399,3.12,0.75l-0.469,1.549   c-0.586-0.352-1.572-0.657-2.628-0.657c-1.267,0-2.299,0.445-3.097,1.291c-0.704,0.681-1.173,1.736-1.408,2.98h6.548v1.174h-6.759   c-0.023,0.305-0.047,0.657-0.047,0.986c0,0.141,0,0.258,0,0.422h6.806v1.15h-6.641c0.187,1.361,0.657,2.371,1.291,3.075   c0.868,0.915,2.042,1.361,3.309,1.361c1.244,0,2.323-0.469,2.863-0.774L49.788,47.3z"></path><g display="inline"><g><path d="M32,12.889l21.177,15.116V60H10.823V28.005L32,12.889 M32,7.974L6.823,25.946V64h50.355V25.946L32,7.974L32,7.974z"></path></g><path d="M51.658,14.06V6.158L45.5,0c0,0,0,5.751,0,9.656L32,0L2.027,21.438v4.877L32,4.877l29.973,21.438v-4.877L51.658,14.06z"></path></g></g><g display="none"><rect x="14.212" y="42.659" display="inline" fill="none" stroke="#000000" stroke-miterlimit="10" width="2.748" height="5.485"></rect><rect x="18.927" y="39.525" display="inline" fill="none" stroke="#000000" stroke-miterlimit="10" width="2.748" height="8.619"></rect><rect x="23.642" y="35.999" display="inline" fill="none" stroke="#000000" stroke-miterlimit="10" width="2.748" height="12.145"></rect><rect x="28.357" y="32.473" display="inline" fill="none" stroke="#000000" stroke-miterlimit="10" width="2.748" height="15.671"></rect><rect x="33.072" y="39.525" display="inline" fill="none" stroke="#000000" stroke-miterlimit="10" width="2.748" height="8.619"></rect><g display="inline"><path d="M49.788,47.3c-0.728,0.493-1.947,0.986-3.496,0.986c-1.902,0-3.591-0.728-4.764-2.089    c-0.892-0.986-1.479-2.346-1.69-4.036h-1.455v-1.15h1.338c0-0.117,0-0.234,0-0.352c0-0.375,0.023-0.728,0.047-1.055h-1.385v-1.174    h1.55c0.281-1.642,0.986-3.004,1.923-3.966c1.197-1.244,2.723-1.947,4.647-1.947c1.384,0,2.464,0.399,3.12,0.75l-0.469,1.549    c-0.586-0.352-1.572-0.657-2.628-0.657c-1.267,0-2.299,0.445-3.097,1.291c-0.704,0.681-1.173,1.736-1.408,2.98h6.548v1.174h-6.759    c-0.023,0.305-0.047,0.657-0.047,0.986c0,0.141,0,0.258,0,0.422h6.806v1.15h-6.641c0.187,1.361,0.657,2.371,1.291,3.075    c0.868,0.915,2.042,1.361,3.309,1.361c1.244,0,2.323-0.469,2.863-0.774L49.788,47.3z"></path></g><g display="inline"><path d="M32,9.203L56.177,26.46V63H7.823V26.46L32,9.203 M32,7.974L6.823,25.946V64h50.355V25.946L32,7.974L32,7.974z"></path></g><g display="inline"><path d="M32,1.229l12.918,9.24L46.5,11.6V9.656V2.414l4.158,4.158v7.488v0.514l0.418,0.299l9.897,7.078v2.418L32.582,4.064    L32,3.648l-0.582,0.416L3.027,24.37v-2.418L32,1.229 M45.5,0c0,0,0,5.751,0,9.656L32,0L2.027,21.438v4.877L32,4.877l29.973,21.438    v-4.877L51.658,14.06V6.158L45.5,0L45.5,0z"></path></g></g></svg>