<?xml version="1.0" standalone="no"?>
<!DOCTYPE svg PUBLIC "-//W3C//DTD SVG 20010904//EN"
 "http://www.w3.org/TR/2001/REC-SVG-20010904/DTD/svg10.dtd">
<svg version="1.0" xmlns="http://www.w3.org/2000/svg"
 width="1200.000000pt" height="1200.000000pt" viewBox="0 0 1200.000000 1200.000000"
 preserveAspectRatio="xMidYMid meet">
<metadata>
Created by potrace 1.11, written by Peter Selinger 2001-2013
</metadata>
<g transform="translate(0.000000,1200.000000) scale(0.100000,-0.100000)"
fill="#000000" stroke="none">
<path d="M5785 11973 c-170 -8 -397 -27 -535 -44 -1423 -179 -2733 -867 -3699
-1944 -823 -918 -1340 -2058 -1485 -3275 -29 -245 -39 -419 -39 -710 0 -582
69 -1085 224 -1630 390 -1379 1274 -2579 2484 -3372 1226 -804 2711 -1127
4165 -907 883 134 1754 482 2498 996 312 216 526 397 822 693 296 296 477 510
693 822 368 533 663 1155 836 1768 154 543 224 1053 224 1630 0 577 -69 1085
-223 1630 -390 1377 -1276 2579 -2485 3372 -649 426 -1368 718 -2135 867 -428
83 -948 123 -1345 104z m690 -73 c280 -24 604 -75 860 -134 2403 -557 4227
-2574 4535 -5014 34 -276 44 -440 44 -752 0 -312 -10 -475 -45 -753 -214
-1696 -1172 -3233 -2609 -4182 -846 -559 -1777 -880 -2805 -967 -190 -16 -738
-15 -915 1 -361 32 -665 82 -976 160 -2346 589 -4108 2559 -4428 4951 -39 296
-50 465 -50 790 0 326 11 496 50 790 368 2757 2636 4899 5409 5110 77 6 169
12 205 14 111 6 599 -3 725 -14z"/>
<path d="M5525 11805 c-1403 -124 -2655 -706 -3640 -1690 -895 -894 -1472
-2043 -1649 -3286 -46 -318 -51 -405 -51 -829 0 -423 5 -511 50 -825 237
-1655 1172 -3123 2580 -4048 834 -548 1773 -864 2783 -938 215 -15 795 -7 992
15 733 82 1380 270 2009 585 1125 564 2048 1487 2612 2612 279 559 465 1152
553 1770 46 318 51 405 51 829 0 424 -5 511 -51 829 -236 1650 -1174 3121
-2579 4043 -697 458 -1503 766 -2321 887 -300 45 -419 53 -809 56 -260 3 -427
-1 -530 -10z m1050 -149 c432 -48 870 -143 1250 -273 1979 -676 3435 -2387
3779 -4438 56 -332 76 -585 76 -945 0 -360 -20 -613 -76 -945 -415 -2479
-2445 -4410 -4939 -4699 -340 -40 -785 -48 -1122 -21 -1571 127 -3004 894
-3998 2140 -632 793 -1048 1774 -1180 2780 -30 231 -45 472 -45 745 0 546 60
998 200 1505 319 1162 999 2188 1955 2950 660 526 1478 916 2295 1094 259 57
527 95 870 125 120 10 793 -3 935 -18z"/>
<path d="M5763 11513 c-32 -3 -43 -8 -43 -21 0 -9 7 -136 17 -282 9 -146 13
-282 9 -303 -4 -21 -20 -52 -35 -69 -24 -27 -36 -32 -89 -36 -59 -4 -63 -3
-96 30 -45 45 -53 88 -74 398 l-17 255 -105 -4 c-58 -1 -108 -6 -111 -10 -10
-9 38 -620 51 -661 54 -162 238 -237 458 -185 143 34 219 109 243 239 7 39 4
128 -11 337 -11 156 -20 292 -20 301 0 16 -9 18 -67 16 -38 -1 -87 -3 -110 -5z
m140 -313 c9 -140 15 -279 12 -308 -10 -96 -51 -153 -140 -194 -44 -20 -66
-23 -176 -23 -122 0 -127 1 -175 30 -59 37 -100 105 -110 181 -3 29 -14 160
-23 292 l-16 240 49 7 c26 3 50 4 52 2 2 -2 11 -102 19 -223 19 -268 27 -324
60 -379 66 -113 254 -114 320 -1 35 60 39 123 21 370 -22 299 -26 268 37 264
l52 -3 18 -255z"/>
<path d="M6356 11498 c-9 -27 -109 -849 -104 -853 3 -3 50 -11 105 -18 l101
-13 5 30 c2 17 17 131 33 254 15 122 31 219 35 215 3 -5 48 -125 99 -268 52
-143 94 -261 95 -263 6 -9 239 -32 244 -23 8 12 114 851 109 857 -8 8 -198 28
-204 21 -4 -3 -21 -118 -38 -254 -25 -191 -35 -243 -42 -228 -6 11 -51 133
-100 272 l-89 251 -85 12 c-47 6 -102 13 -122 16 -27 4 -39 2 -42 -8z m205
-76 c3 -4 54 -144 114 -312 59 -168 110 -310 112 -316 2 -7 15 -14 28 -17 29
-5 24 -32 69 326 19 148 37 271 39 274 3 2 26 1 51 -2 46 -7 46 -8 41 -39 -3
-17 -25 -185 -49 -374 -24 -189 -46 -345 -48 -346 -1 -1 -36 2 -77 8 l-74 11
-114 320 c-64 176 -116 321 -117 322 0 0 -12 3 -26 5 l-24 3 -38 -299 c-20
-164 -39 -301 -42 -303 -2 -2 -25 -1 -50 2 -45 7 -46 8 -41 39 3 17 23 177 45
356 23 179 43 334 45 346 4 19 8 20 77 11 40 -5 76 -12 79 -15z"/>
<path d="M7500 11307 c0 -2 -54 -188 -120 -413 -66 -225 -119 -413 -116 -419
4 -12 195 -70 203 -62 6 6 242 808 243 824 0 10 -53 29 -192 69 -10 3 -18 4
-18 1z m137 -100 c4 -5 -201 -714 -209 -722 -5 -6 -81 15 -91 24 -4 5 32 145
82 312 49 167 97 330 106 361 l16 57 46 -14 c25 -7 47 -16 50 -18z"/>
<path d="M3895 11112 c-49 -19 -91 -36 -93 -37 -4 -4 299 -798 309 -809 10
-12 499 176 499 191 0 15 -50 144 -60 156 -3 4 -71 -17 -150 -48 -80 -30 -145
-55 -146 -55 -1 0 -57 144 -124 320 -67 176 -128 320 -134 319 -6 -1 -51 -17
-101 -37z m200 -352 c64 -168 120 -309 125 -314 5 -5 71 16 152 47 l143 55 13
-30 c7 -17 11 -32 8 -35 -6 -7 -389 -154 -391 -151 -7 9 -265 695 -265 703 0
12 82 44 92 36 3 -3 59 -143 123 -311z"/>
<path d="M8045 11098 c-11 -85 -95 -834 -95 -854 0 -16 23 -31 108 -73 l107
-52 150 155 c83 85 228 236 322 334 l173 179 -102 47 -102 47 -36 -38 c-21
-21 -113 -118 -205 -216 -92 -98 -170 -176 -172 -174 -2 3 12 128 32 278 19
150 35 283 35 294 0 16 -21 31 -95 68 -52 26 -99 47 -105 47 -5 0 -11 -19 -15
-42z m155 -96 c0 -4 -18 -152 -41 -329 -34 -263 -40 -325 -29 -338 7 -8 16
-15 19 -15 4 0 69 66 146 148 76 81 180 191 232 244 l93 97 47 -20 46 -20 -94
-97 c-52 -53 -178 -184 -281 -290 l-187 -193 -70 36 c-39 19 -71 40 -71 45 0
15 79 710 86 752 l6 37 49 -24 c27 -14 49 -29 49 -33z"/>
<path d="M3083 10695 l-92 -55 115 -193 c63 -105 162 -274 222 -374 59 -101
110 -183 113 -183 8 0 440 257 452 269 4 4 -12 42 -38 85 l-46 76 -28 -15
c-15 -7 -77 -43 -137 -79 l-109 -66 -20 34 c-11 18 -90 151 -175 294 -85 144
-157 262 -160 262 -3 0 -46 -25 -97 -55z m237 -287 c85 -143 164 -276 175
-294 l20 -34 135 81 134 81 19 -23 c9 -12 16 -27 14 -33 -3 -11 -342 -216
-356 -216 -3 0 -69 107 -146 237 -77 130 -163 276 -192 324 l-52 88 42 26 c23
13 44 25 47 25 3 0 75 -118 160 -262z"/>
<path d="M8835 10258 c-138 -188 -253 -346 -257 -353 -4 -7 71 -68 204 -166
116 -85 215 -156 220 -158 10 -3 16 3 77 90 l40 55 -129 94 c-82 59 -127 97
-122 104 38 63 89 125 99 121 9 -3 164 -114 219 -156 10 -8 95 96 109 133 4
11 -28 40 -109 98 l-115 84 36 50 c20 28 39 55 43 59 4 4 62 -33 130 -83 68
-49 127 -90 132 -90 7 0 107 130 108 141 0 5 -424 319 -432 319 -2 0 -116
-154 -253 -342z m433 141 c92 -67 168 -123 170 -124 6 -5 -30 -55 -38 -55 -4
0 -59 37 -121 83 -63 46 -119 86 -126 90 -7 4 -31 -20 -64 -65 -29 -40 -63
-87 -76 -105 l-24 -31 116 -83 c63 -46 115 -88 115 -92 0 -5 -8 -19 -18 -32
l-18 -22 -114 83 c-63 46 -118 82 -122 81 -12 -3 -167 -221 -162 -228 2 -4 58
-46 124 -93 66 -48 120 -93 120 -100 0 -7 -9 -21 -19 -30 -19 -17 -25 -14
-189 106 -101 73 -167 128 -163 134 11 20 436 603 439 603 2 1 79 -54 170
-120z"/>
<path d="M5720 10484 c-19 -2 -91 -9 -160 -15 -174 -15 -449 -62 -642 -110
-1480 -365 -2694 -1487 -3178 -2939 -99 -295 -167 -607 -207 -938 -25 -207
-25 -755 0 -964 107 -899 445 -1698 1011 -2385 115 -139 450 -474 589 -589
434 -357 930 -632 1463 -810 890 -298 1906 -298 2804 -1 404 134 823 343 1160
579 383 269 754 626 1029 992 820 1091 1099 2487 761 3812 -80 315 -184 590
-340 899 -157 314 -333 583 -554 852 -115 139 -450 474 -589 589 -685 564
-1486 904 -2377 1010 -127 15 -682 28 -770 18z m780 -78 c394 -48 793 -149
1150 -291 152 -60 484 -226 630 -315 1065 -646 1804 -1684 2059 -2895 142
-672 119 -1416 -65 -2079 -444 -1602 -1741 -2821 -3369 -3165 -295 -63 -577
-91 -905 -91 -584 0 -1090 97 -1638 312 -1114 438 -2042 1366 -2480 2480 -216
549 -312 1053 -312 1638 0 686 140 1303 434 1915 223 464 495 845 865 1216
504 503 1087 863 1756 1084 330 108 624 166 1070 209 105 10 678 -3 805 -18z"/>
<path d="M5795 10320 c-1998 -92 -3689 -1569 -4049 -3540 -92 -502 -92 -1058
0 -1560 303 -1659 1564 -3003 3201 -3414 357 -89 664 -126 1053 -126 687 0
1296 141 1905 440 1249 615 2128 1793 2360 3164 56 330 72 787 39 1127 -127
1344 -880 2552 -2037 3271 -515 319 -1110 529 -1726 608 -125 17 -536 44 -576
38 -5 -1 -82 -4 -170 -8z m741 -169 c644 -88 1224 -303 1749 -648 983 -647
1646 -1657 1840 -2805 46 -273 58 -450 52 -778 -5 -305 -20 -459 -67 -705
-102 -533 -306 -1035 -607 -1499 -312 -480 -739 -907 -1219 -1219 -578 -375
-1211 -597 -1893 -662 -85 -8 -203 -15 -263 -15 l-108 0 232 118 c1071 542
1923 1306 2312 2070 138 273 218 520 263 817 17 113 18 241 18 2175 l0 2055
-2847 3 -2848 2 0 -2003 c0 -1723 2 -2020 15 -2131 91 -775 543 -1503 1355
-2182 350 -292 813 -594 1258 -821 l204 -103 -110 0 c-60 0 -178 7 -263 15
-890 85 -1709 441 -2382 1035 -208 184 -385 375 -554 597 -456 600 -731 1275
-830 2038 -26 201 -26 788 0 990 122 953 531 1790 1202 2460 548 548 1218 928
1958 1109 166 41 387 80 542 95 61 6 124 13 140 15 17 2 181 3 365 1 271 -2
364 -7 486 -24z m2169 -3216 c0 -1856 -1 -1987 -18 -2095 -72 -462 -264 -875
-607 -1305 -126 -159 -468 -503 -645 -649 -376 -312 -795 -588 -1232 -813
l-202 -104 -159 79 c-801 400 -1537 983 -1976 1567 -325 431 -516 890 -566
1357 -6 63 -10 773 -10 2023 l0 1925 2708 -2 2707 -3 0 -1980z"/>
<path d="M3380 6950 c0 -1237 4 -1893 11 -1958 69 -643 429 -1287 1030 -1849
400 -374 887 -713 1392 -969 l188 -95 182 94 c408 210 783 456 1152 758 182
148 524 490 653 651 367 461 568 920 611 1398 7 75 11 755 11 1973 l0 1857
-2615 0 -2615 0 0 -1860z m5170 725 l0 -1075 -2555 0 -2555 0 0 1075 0 1075
2555 0 2555 0 0 -1075z m-2592 -1447 c1 -129 -1 -228 -7 -228 -4 0 -28 7 -52
17 -61 22 -307 22 -509 -1 -98 -11 -265 -20 -457 -23 l-303 -5 0 -44 0 -44
-110 0 -110 0 0 -105 0 -104 -132 -3 -133 -3 0 -180 0 -180 133 -3 132 -3 0
-204 0 -204 -132 -3 -133 -3 0 -180 0 -180 133 -3 132 -3 0 -204 0 -204 -132
-3 -133 -3 0 -180 0 -180 133 -3 132 -3 0 -104 0 -105 690 0 689 0 43 -43 c24
-23 59 -47 78 -53 l35 -10 3 -638 2 -638 -162 84 c-680 351 -1317 853 -1725
1358 -276 341 -496 776 -572 1130 -48 225 -51 288 -51 1026 l0 694 1258 -2
1257 -3 3 -227z m2592 -475 c-1 -750 -4 -827 -50 -1038 -145 -664 -639 -1328
-1434 -1923 -265 -198 -648 -437 -916 -572 l-100 -50 2 636 3 636 39 13 c21 8
57 32 80 54 l42 41 687 0 687 0 0 105 0 105 135 0 135 0 0 185 0 185 -135 0
-135 0 0 205 0 205 135 0 135 0 0 185 0 185 -135 0 -135 0 0 205 0 205 135 0
135 0 0 185 0 185 -135 0 -135 0 0 105 0 105 -105 0 -105 0 0 45 0 45 -237 0
c-131 0 -310 7 -398 15 -88 7 -222 20 -297 26 -155 15 -311 4 -366 -25 l-32
-17 0 236 0 235 1250 0 1250 0 0 -707z m-2671 171 c88 -26 81 73 81 -1101 l0
-1042 -50 34 c-28 19 -70 37 -93 40 -24 4 -164 -1 -312 -10 -149 -9 -386 -19
-527 -22 l-258 -6 0 1037 0 1036 148 0 c136 0 523 28 697 50 90 11 250 3 314
-16z m761 -5 c113 -11 305 -23 428 -26 l222 -6 0 -1033 0 -1034 -179 0 c-99 0
-289 7 -423 16 -134 8 -306 16 -383 17 -149 2 -176 -4 -232 -56 l-23 -20 0
1050 c0 988 1 1051 18 1066 66 60 184 65 572 26z m-2012 -1150 l2 -1036 38 -7
c85 -14 529 2 1044 38 93 7 123 -5 190 -71 51 -50 63 -58 97 -58 34 0 47 8 98
57 69 65 106 79 201 72 515 -36 978 -52 1051 -38 l31 7 0 1038 0 1039 60 0 60
0 0 -1085 0 -1085 -680 0 -680 0 -13 -32 c-23 -53 -51 -71 -115 -75 -70 -5
-114 19 -133 71 l-13 36 -678 0 -678 0 0 1085 0 1086 58 -3 57 -3 3 -1036z
m-218 736 l0 -85 -85 0 -85 0 0 85 0 85 85 0 85 0 0 -85z m3360 0 l0 -85 -90
0 -90 0 0 85 0 85 90 0 90 0 0 -85z m-3360 -780 l0 -85 -85 0 -85 0 0 85 0 85
85 0 85 0 0 -85z m3360 0 l0 -85 -90 0 -90 0 0 85 0 85 90 0 90 0 0 -85z
m-3360 -780 l0 -85 -85 0 -85 0 0 85 0 85 85 0 85 0 0 -85z m3360 0 l0 -85
-90 0 -90 0 0 85 0 85 90 0 90 0 0 -85z"/>
<path d="M3872 8003 l3 -648 24 -50 c15 -30 57 -82 106 -130 71 -69 129 -109
419 -288 l338 -208 218 125 c460 262 598 366 657 492 l28 59 3 648 3 647 -901
0 -901 0 3 -647z m1698 352 l0 -205 -805 0 -805 0 0 198 c0 109 3 202 7 205 3
4 366 7 805 7 l798 0 0 -205z m-1450 -715 c0 -358 -2 -430 -14 -430 -19 0 -90
79 -118 132 -23 42 -23 49 -26 386 l-3 342 81 0 80 0 0 -430z m240 -86 l0
-516 -22 14 c-13 8 -49 30 -80 49 l-58 34 0 467 0 468 80 0 80 0 0 -516z m240
-75 l0 -591 -22 14 c-13 9 -47 30 -75 47 l-53 33 0 544 0 544 75 0 75 0 0
-591z m250 -24 l0 -615 -42 -26 -41 -26 -36 20 -36 21 -3 620 -2 621 80 0 80
0 0 -615z m240 67 l0 -548 -73 -42 c-40 -23 -76 -42 -80 -42 -4 0 -7 266 -7
590 l0 590 80 0 80 0 0 -548z m240 74 l0 -474 -62 -39 c-35 -22 -69 -43 -75
-47 -10 -6 -13 100 -13 513 l0 521 75 0 75 0 0 -474z m238 115 l-3 -360 -41
-57 c-22 -31 -54 -68 -72 -82 l-32 -25 0 442 0 441 75 0 76 0 -3 -359z"/>
<path d="M6332 8008 c3 -716 -1 -667 74 -770 67 -90 138 -140 725 -500 l96
-59 144 82 c200 113 442 259 518 313 93 65 177 152 209 215 l27 56 3 653 3
652 -901 0 -901 0 3 -642z m404 417 l263 -136 15 30 16 30 -83 44 c-45 25
-127 68 -182 95 -55 28 -107 56 -115 61 -11 8 39 11 167 11 l181 0 53 -85 c28
-47 55 -85 59 -85 4 0 18 8 30 18 l23 19 -36 59 c-21 33 -37 63 -37 67 0 4 63
7 140 7 77 0 140 -3 140 -6 0 -4 -16 -33 -36 -66 -38 -63 -38 -62 6 -88 13 -7
27 9 69 76 l53 84 181 0 c105 0 177 -4 172 -9 -6 -5 -90 -50 -187 -101 -98
-50 -178 -97 -178 -103 1 -7 6 -22 13 -34 12 -21 17 -19 270 113 155 81 267
134 280 132 21 -3 22 -7 25 -170 l2 -168 -260 0 -260 0 0 -35 0 -35 258 -2
257 -3 3 -85 3 -86 -142 -66 -141 -66 -157 100 c-86 55 -161 105 -168 112 -8
8 -8 24 0 63 15 70 -3 125 -57 179 -73 73 -174 83 -255 24 -54 -39 -75 -81
-81 -164 l-5 -69 -192 -75 -192 -75 -108 70 c-102 66 -108 72 -111 106 l-3 37
260 0 261 0 0 35 0 35 -260 0 -260 0 0 170 c0 166 0 170 21 170 12 0 140 -61
285 -135z m590 -176 c13 -12 28 -37 33 -55 9 -34 4 -84 -10 -84 -4 0 -30 14
-57 31 l-49 30 -62 -25 c-70 -28 -78 -23 -67 38 17 92 142 131 212 65z m319
-431 c217 -139 395 -259 395 -265 0 -10 -71 -13 -323 -13 l-323 0 -98 130 -98
129 -30 -15 c-16 -9 -31 -14 -33 -12 -2 2 -7 28 -12 58 l-8 55 -127 3 -126 3
-7 -60 -7 -60 -81 -3 c-76 -3 -81 -4 -88 -28 -4 -14 -20 -64 -35 -112 l-26
-88 -94 0 -94 0 0 221 0 221 27 -17 c14 -10 41 -26 60 -37 18 -11 33 -23 33
-27 0 -4 -18 -14 -40 -21 -22 -7 -40 -16 -40 -20 0 -21 24 -70 33 -70 7 1 172
66 367 145 195 79 361 141 367 139 7 -2 190 -117 408 -256z m395 -43 c0 -58
-3 -105 -6 -105 -11 0 -184 112 -184 120 0 6 165 87 183 89 4 1 7 -46 7 -104z
m-970 41 c0 -7 3 -34 6 -60 l7 -46 -93 0 -92 0 6 31 c3 17 6 44 6 60 l0 29 80
0 c61 0 80 -3 80 -14z m214 -226 c54 -72 97 -132 95 -134 -5 -6 -182 -47 -184
-44 -1 2 -13 69 -26 150 -25 144 -25 155 6 157 6 1 54 -58 109 -129z m-444 98
c-1 -61 -8 -68 -71 -68 -64 0 -67 3 -48 59 10 30 13 31 65 31 49 0 54 -2 54
-22z m264 -90 c4 -24 9 -58 12 -75 l6 -33 -121 0 -121 0 0 29 c0 15 3 49 6 75
l7 46 102 0 102 0 7 -42z m-284 -72 c0 -13 -3 -38 -6 -55 l-6 -31 -80 0 c-66
0 -79 3 -75 14 3 8 11 33 17 55 l11 41 69 0 c67 0 70 -1 70 -24z m-234 -90
c-3 -13 -9 -31 -12 -40 -5 -14 10 -16 139 -16 138 0 146 1 152 20 6 20 13 20
138 18 l132 -3 6 -37 6 -38 -287 -2 -288 -3 15 -37 15 -38 399 0 400 0 50 38
50 37 -163 5 -163 5 145 34 c80 18 148 35 153 38 4 2 2 13 -3 24 -10 19 -5 19
281 19 l291 0 -7 -47 c-4 -27 -13 -62 -20 -80 -17 -40 -84 -113 -145 -158
l-48 -35 -326 0 -326 0 0 -40 0 -40 263 0 262 0 -48 -31 c-112 -70 -417 -240
-424 -236 -34 18 -550 338 -593 367 -70 48 -166 149 -185 194 -8 20 -15 51
-15 71 l0 35 81 0 c81 0 81 0 75 -24z"/>
<path d="M5395 5739 c-93 -10 -250 -21 -347 -25 l-178 -7 0 -48 0 -49 113 6
c61 3 198 12 302 20 343 28 440 33 478 27 l38 -6 -3 49 -3 49 -115 1 c-63 1
-191 -7 -285 -17z"/>
<path d="M5380 5564 c-129 -12 -269 -23 -311 -23 -42 -1 -104 -4 -138 -7 l-61
-7 0 -45 0 -45 148 6 c81 4 248 16 372 27 123 11 266 20 317 20 l93 0 0 44 0
43 -46 7 c-67 9 -111 6 -374 -20z"/>
<path d="M5385 5259 c-99 -9 -255 -21 -347 -25 l-168 -7 0 -47 0 -46 113 3
c61 3 193 11 292 19 392 32 451 35 488 30 l37 -6 0 50 0 50 -117 -1 c-65 -1
-199 -10 -298 -20z"/>
<path d="M5375 5084 c-126 -12 -275 -23 -330 -23 -55 -1 -117 -4 -137 -7 -37
-7 -38 -7 -38 -52 l0 -45 145 7 c80 4 218 13 308 22 89 8 233 18 320 21 l157
6 0 42 c0 40 -2 43 -31 49 -51 10 -149 5 -394 -20z"/>
<path d="M5365 4780 c-99 -10 -251 -21 -337 -25 l-158 -8 0 -43 0 -44 108 0
c59 0 184 7 277 15 332 29 455 37 499 33 l46 -3 0 47 0 48 -127 -1 c-71 -1
-209 -9 -308 -19z"/>
<path d="M5375 4604 c-126 -12 -271 -23 -321 -23 -50 -1 -112 -4 -138 -7 l-46
-7 0 -45 0 -45 143 6 c78 4 243 16 367 27 124 11 269 20 323 20 l97 0 0 44 0
43 -46 7 c-67 9 -121 6 -379 -20z"/>
<path d="M5380 4299 c-96 -10 -250 -21 -342 -25 l-168 -7 0 -47 0 -46 113 3
c61 3 193 11 292 19 373 30 461 36 492 31 l33 -6 0 50 0 49 -122 -1 c-68 -1
-202 -10 -298 -20z"/>
<path d="M5375 4124 c-126 -12 -275 -23 -330 -23 -55 -1 -117 -4 -137 -7 -37
-7 -38 -7 -38 -52 l0 -45 148 7 c81 4 219 14 307 22 88 8 231 18 318 21 l157
6 0 42 c0 41 -1 43 -37 49 -59 9 -141 5 -388 -20z"/>
<path d="M6207 5753 c-4 -3 -7 -25 -7 -48 l0 -41 108 -1 c59 -1 220 -11 357
-22 138 -11 301 -22 363 -25 l113 -6 -3 48 -3 47 -155 7 c-85 3 -252 16 -370
27 -214 21 -391 27 -403 14z"/>
<path d="M6238 5583 c-38 -4 -38 -5 -38 -49 l0 -44 98 0 c53 0 198 -9 322 -20
124 -11 291 -23 373 -27 l147 -6 0 45 0 45 -67 6 c-38 4 -97 7 -133 7 -36 0
-184 11 -330 25 -258 24 -295 26 -372 18z"/>
<path d="M6200 5230 l0 -51 33 6 c33 6 145 0 492 -29 94 -8 224 -16 290 -18
l120 -3 0 45 0 45 -153 7 c-84 4 -249 16 -366 27 -117 12 -259 21 -314 21
l-102 0 0 -50z"/>
<path d="M6228 5103 c-26 -4 -28 -8 -28 -49 l0 -44 98 0 c53 0 199 -9 322 -20
124 -11 291 -23 373 -26 l147 -7 0 45 0 45 -46 7 c-26 3 -86 6 -133 6 -47 0
-201 11 -341 25 -241 23 -329 27 -392 18z"/>
<path d="M6200 4753 l0 -48 55 3 c53 4 103 0 490 -33 94 -8 221 -15 283 -15
l112 0 0 43 0 44 -155 7 c-85 4 -248 16 -363 26 -114 11 -255 20 -314 20
l-108 0 0 -47z"/>
<path d="M6213 4623 c-8 -3 -13 -23 -13 -49 l0 -44 108 0 c59 0 208 -9 332
-19 124 -11 287 -23 363 -26 l137 -7 0 45 c0 32 -5 47 -16 51 -9 3 -61 6 -117
6 -56 0 -221 11 -367 25 -250 23 -399 30 -427 18z"/>
<path d="M6200 4270 l0 -50 38 6 c36 5 107 1 487 -30 99 -8 232 -16 295 -18
l115 -3 0 45 0 45 -155 7 c-85 4 -249 16 -365 27 -115 12 -256 21 -312 21
l-103 0 0 -50z"/>
<path d="M6228 4143 c-26 -4 -28 -8 -28 -49 l0 -44 98 0 c53 0 198 -9 322 -20
124 -10 291 -22 373 -26 l147 -7 0 45 0 45 -46 7 c-26 3 -83 6 -128 6 -45 0
-200 11 -346 25 -253 24 -331 27 -392 18z"/>
<path d="M2461 10239 c-111 -94 -201 -175 -199 -179 11 -27 555 -658 565 -655
17 6 403 334 403 343 0 4 -25 38 -56 75 -56 68 -57 68 -78 49 -95 -84 -216
-182 -223 -182 -13 0 -107 116 -102 126 2 5 50 49 107 97 l103 88 -21 27 c-11
15 -37 47 -59 72 l-39 44 -88 -74 c-48 -41 -99 -83 -112 -94 l-23 -18 -37 42
c-20 24 -40 49 -45 56 -5 9 31 45 113 115 l120 101 -43 50 c-23 27 -48 58 -56
69 -7 10 -17 19 -21 19 -4 0 -98 -77 -209 -171z m223 69 c9 -12 16 -26 16 -29
0 -4 -52 -51 -115 -105 -64 -53 -114 -101 -113 -105 5 -15 153 -188 161 -188
4 -1 55 40 114 90 l106 91 25 -26 c14 -14 24 -27 21 -29 -2 -2 -51 -43 -109
-92 -58 -49 -107 -90 -109 -91 -1 -2 39 -52 90 -113 80 -95 95 -109 109 -97 8
7 62 52 119 101 107 92 118 95 145 52 8 -13 8 -20 0 -25 -6 -4 -77 -63 -159
-132 -81 -69 -150 -125 -154 -125 -4 0 -116 128 -249 285 l-242 285 23 22 c38
38 292 252 299 252 4 1 14 -9 22 -21z"/>
<path d="M9539 9699 c-173 -160 -315 -295 -317 -300 -2 -5 29 -45 69 -88 l73
-80 124 117 124 116 24 -27 c13 -16 24 -34 24 -42 0 -7 -33 -83 -74 -168 l-74
-155 83 -88 82 -89 25 50 c56 112 158 343 158 357 0 14 10 15 60 11 82 -8 137
14 195 79 112 125 83 229 -132 462 -68 75 -125 136 -127 136 -1 0 -144 -131
-317 -291z m498 9 c43 -52 83 -133 83 -171 0 -67 -64 -146 -134 -166 -43 -11
-99 0 -138 29 -28 21 -31 21 -48 5 -17 -15 -18 -20 -6 -44 11 -21 11 -33 1
-66 -11 -36 -122 -284 -131 -294 -2 -2 -21 16 -42 40 l-39 43 62 131 c71 151
79 174 65 210 -13 33 -81 115 -96 115 -6 0 -19 -10 -30 -21 -10 -12 -63 -62
-117 -112 l-98 -90 -34 33 c-19 19 -35 37 -35 41 0 4 124 122 277 263 l276
256 74 -79 c40 -44 90 -99 110 -123z"/>
<path d="M9767 9687 l-98 -92 53 -57 c88 -94 168 -117 233 -66 55 43 68 103
36 166 -20 39 -107 142 -119 142 -4 -1 -51 -42 -105 -93z m135 -21 c57 -71 61
-121 13 -152 -34 -22 -67 -12 -119 37 l-44 39 57 55 c31 30 58 55 61 55 3 0
17 -15 32 -34z"/>
<path d="M1875 9673 c-33 -42 -61 -80 -63 -84 -2 -5 87 -80 198 -169 111 -88
198 -160 193 -160 -4 0 -129 25 -278 55 -148 31 -275 54 -281 53 -15 -4 -156
-178 -152 -189 4 -11 666 -539 676 -539 11 0 127 146 127 159 0 5 -85 77 -190
161 -104 83 -194 155 -198 159 -7 7 500 -90 545 -104 12 -4 37 19 93 89 42 52
74 100 70 105 -6 11 -671 541 -677 541 -1 -1 -30 -35 -63 -77z m370 -238 c162
-130 295 -238 295 -241 0 -14 -87 -113 -100 -114 -8 0 -161 30 -339 66 -316
65 -324 66 -342 47 -18 -18 -14 -22 202 -193 121 -96 230 -182 241 -191 l21
-16 -28 -37 c-15 -20 -31 -36 -35 -36 -5 0 -568 445 -589 466 -4 4 76 111 89
119 4 2 157 -27 341 -65 306 -63 335 -68 347 -53 6 9 12 20 12 23 0 4 -106 91
-235 194 -164 130 -233 190 -228 199 11 18 47 66 50 67 2 0 135 -106 298 -235z"/>
<path d="M10375 9087 c-106 -42 -163 -107 -180 -204 -4 -25 0 -88 11 -157 19
-129 14 -161 -30 -172 -65 -16 -130 67 -156 197 l-15 77 -92 -43 c-51 -24 -93
-48 -93 -53 0 -5 9 -34 20 -66 49 -142 140 -264 232 -310 125 -62 288 -5 346
122 22 50 24 62 18 146 -3 50 -10 115 -14 144 -10 63 1 92 41 107 21 7 35 6
55 -6 35 -19 79 -99 93 -171 6 -32 13 -58 14 -58 1 0 41 18 89 41 98 46 95 37
55 143 -43 116 -128 219 -213 257 -47 21 -135 24 -181 6z m188 -76 c55 -36
107 -103 143 -189 29 -67 27 -76 -18 -87 -21 -5 -28 -3 -28 7 0 30 -63 139
-93 162 -47 36 -81 41 -133 21 -76 -29 -87 -77 -59 -248 15 -91 12 -132 -12
-179 -32 -64 -107 -108 -186 -108 -62 0 -123 33 -176 96 -34 41 -111 187 -111
210 0 7 14 21 31 30 33 17 48 9 49 -26 0 -31 58 -137 89 -163 18 -14 49 -32
70 -38 54 -16 108 10 135 65 18 37 18 41 1 166 -15 106 -16 136 -7 169 38 125
194 182 305 112z"/>
<path d="M1269 8710 c-66 -35 -123 -112 -210 -284 -46 -91 -82 -166 -79 -169
18 -16 771 -388 777 -384 11 7 98 186 92 191 -2 2 -68 36 -146 75 -79 39 -143
76 -143 82 0 21 22 50 44 58 13 5 78 3 156 -5 217 -22 192 -30 250 86 27 55
50 104 50 108 0 9 -329 37 -412 35 -45 -1 -46 0 -53 35 -9 47 -37 101 -67 129
-64 60 -188 81 -259 43z m183 -61 c69 -35 105 -125 80 -197 -9 -27 -8 -31 16
-41 21 -10 27 -9 35 4 17 32 54 36 216 24 86 -7 160 -15 164 -19 5 -4 -2 -29
-15 -55 l-23 -47 -60 6 c-33 3 -109 9 -170 12 -129 7 -141 2 -189 -86 l-29
-53 23 -17 c12 -9 80 -45 150 -80 l128 -64 -23 -46 -24 -47 -333 167 c-183 93
-334 173 -336 179 -6 19 131 272 172 318 66 71 133 84 218 42z"/>
<path d="M1303 8546 c-17 -8 -44 -32 -60 -53 -31 -43 -79 -141 -72 -147 9 -8
229 -116 237 -116 15 0 74 140 79 184 10 95 -96 171 -184 132z m102 -71 c31
-30 31 -61 4 -125 l-21 -49 -73 36 -74 37 21 39 c43 86 97 109 143 62z"/>
<path d="M10610 8167 c-217 -94 -396 -171 -398 -172 -2 -2 76 -192 83 -203 2
-3 797 337 804 343 5 6 -81 205 -88 204 -3 0 -184 -78 -401 -172z m396 48 c9
-25 15 -48 12 -50 -7 -7 -678 -295 -687 -295 -12 0 -46 93 -35 97 5 2 160 69
344 148 184 79 338 144 342 145 3 0 14 -20 24 -45z"/>
<path d="M1005 7826 c-191 -47 -315 -221 -316 -442 0 -95 23 -168 76 -237 98
-128 333 -209 503 -173 86 18 121 35 180 89 141 131 188 358 106 524 -85 174
-348 289 -549 239z m214 -61 c220 -52 348 -223 313 -415 -20 -105 -51 -171
-111 -231 -88 -87 -199 -115 -341 -85 -148 31 -259 109 -308 216 -65 141 -6
365 122 461 86 65 198 84 325 54z"/>
<path d="M1025 7663 c-148 -32 -234 -169 -195 -308 44 -158 316 -270 485 -200
161 66 196 300 61 409 -96 78 -249 122 -351 99z m177 -73 c131 -40 198 -111
198 -208 0 -137 -109 -212 -267 -183 -201 37 -300 168 -232 308 46 95 160 127
301 83z"/>
<path d="M11190 7798 c-19 -5 -58 -15 -86 -23 l-51 -15 29 -107 c15 -60 28
-111 28 -114 0 -3 -144 -43 -319 -89 -176 -45 -325 -86 -332 -90 -9 -6 -7 -28
10 -97 12 -49 26 -95 31 -103 7 -11 67 2 337 72 180 48 329 85 331 83 2 -2 15
-48 28 -102 14 -54 27 -103 29 -110 3 -9 27 -6 90 12 48 13 88 25 90 27 4 5
-166 652 -173 659 -4 3 -23 2 -42 -3z m28 -158 c12 -47 44 -169 71 -272 l49
-188 -31 -8 c-18 -5 -34 -8 -35 -6 -2 1 -17 51 -33 110 -15 58 -30 108 -31
110 -2 1 -151 -36 -332 -83 -264 -70 -329 -84 -336 -73 -11 17 -23 81 -17 87
3 2 150 42 328 89 178 47 325 87 327 88 2 2 -10 54 -26 115 l-29 111 31 9 c17
4 34 5 37 2 3 -3 16 -44 27 -91z"/>
<path d="M11198 6675 l-247 -172 -113 -7 c-62 -4 -139 -10 -172 -13 l-59 -6 8
-106 c3 -58 8 -108 10 -109 2 -2 79 1 171 8 l168 11 276 -140 277 -141 -4 78
c-2 42 -6 96 -9 120 l-5 43 -161 80 -161 80 139 91 c77 50 145 93 152 95 18 7
3 264 -16 262 -4 0 -118 -79 -254 -174z m221 -23 c1 -19 -31 -43 -179 -140
l-179 -118 194 -97 195 -97 0 -51 0 -51 -237 122 -237 121 -144 -11 c-79 -5
-148 -8 -153 -5 -5 4 -9 28 -9 55 l0 48 138 6 c80 4 149 13 167 20 17 8 120
77 230 154 l200 140 7 -37 c4 -20 7 -46 7 -59z"/>
<path d="M566 6701 c-48 -91 -60 -266 -28 -383 34 -122 105 -206 216 -259 83
-39 153 -52 265 -47 82 3 106 8 161 34 168 80 247 243 238 492 -3 67 -8 126
-12 130 -8 8 -206 17 -206 9 0 -2 7 -22 16 -43 10 -24 17 -71 18 -124 1 -74
-2 -92 -27 -141 -44 -90 -115 -129 -233 -129 -166 0 -266 96 -265 253 0 62 5
82 34 139 l34 66 -81 12 c-45 6 -89 13 -98 16 -12 3 -22 -5 -32 -25z m101 -49
c10 -6 9 -19 -3 -57 -24 -78 -15 -199 19 -258 39 -66 100 -114 175 -137 167
-52 322 0 396 130 30 53 31 60 31 172 l0 118 31 0 c41 0 44 -10 44 -129 0
-296 -162 -451 -440 -420 -160 18 -277 108 -320 246 -39 127 -18 343 33 343
12 0 27 -4 34 -8z"/>
<path d="M10522 4867 c-34 -133 -63 -247 -62 -253 0 -6 100 -39 223 -73 122
-34 229 -64 238 -67 13 -4 17 8 22 73 11 148 57 223 138 223 29 0 47 -7 71
-29 30 -27 33 -34 32 -88 0 -61 -25 -121 -78 -192 l-26 -35 93 -28 c50 -15 97
-28 103 -28 6 0 26 32 43 71 125 280 50 500 -188 550 -160 33 -290 -51 -331
-213 l-12 -45 -51 15 c-29 8 -53 15 -54 16 -1 1 16 68 38 150 21 83 37 152 35
154 -5 4 -147 42 -161 42 -5 0 -38 -109 -73 -243z m165 159 c2 -1 -15 -69 -37
-151 -21 -82 -38 -150 -37 -151 1 -1 45 -14 97 -28 52 -15 102 -29 112 -32 13
-4 17 5 23 48 8 62 37 133 68 167 98 106 319 65 382 -72 34 -71 34 -159 0
-264 -33 -104 -35 -106 -79 -98 -20 4 -36 10 -36 12 0 3 14 34 31 69 59 119
38 234 -51 281 -80 42 -158 24 -213 -49 -28 -37 -57 -115 -57 -156 0 -59 -5
-59 -189 -7 -100 29 -171 54 -171 61 0 11 85 343 95 373 4 9 14 11 33 6 15 -4
28 -8 29 -9z"/>
<path d="M995 4958 c-225 -60 -410 -110 -412 -111 -1 -2 10 -49 24 -105 20
-74 31 -102 42 -102 9 0 84 18 166 40 83 22 155 40 160 40 6 0 26 -58 44 -130
19 -71 36 -130 39 -130 25 0 172 47 172 55 0 5 -14 61 -30 124 -17 62 -30 119
-30 125 0 13 128 48 134 37 2 -3 19 -62 36 -131 18 -69 36 -128 39 -132 4 -4
45 3 91 16 72 19 84 26 82 42 -2 10 -30 120 -63 243 -32 123 -59 225 -59 227
0 8 -33 0 -435 -108z m440 -140 c26 -101 48 -187 49 -192 2 -14 -57 -27 -65
-15 -3 6 -21 68 -39 137 -18 70 -34 128 -35 130 -3 3 -238 -59 -245 -65 -2 -2
11 -62 29 -134 19 -71 32 -131 30 -133 -2 -2 -18 -7 -34 -10 l-30 -7 -34 131
c-21 82 -39 130 -47 130 -7 0 -80 -18 -163 -40 -82 -22 -156 -40 -164 -40 -8
0 -18 19 -24 47 -6 27 -11 49 -10 49 3 3 712 192 723 193 6 0 32 -79 59 -181z"/>
<path d="M1311 4265 c-141 -40 -282 -148 -336 -259 -93 -190 12 -475 211 -572
68 -33 185 -44 273 -24 148 32 294 138 353 257 76 155 33 363 -105 502 -77 77
-140 105 -251 108 -59 2 -110 -3 -145 -12z m273 -75 c61 -29 131 -108 169
-188 25 -54 32 -83 35 -153 4 -77 1 -94 -20 -141 -48 -104 -146 -186 -276
-229 -192 -64 -359 6 -449 189 -36 72 -38 81 -38 171 0 114 20 164 92 236 134
134 345 184 487 115z"/>
<path d="M1395 4109 c-27 -6 -77 -23 -111 -39 -171 -82 -244 -229 -180 -365
70 -151 225 -186 413 -93 71 34 153 115 177 173 47 111 -14 263 -124 309 -50
20 -117 26 -175 15z m138 -63 c72 -26 117 -92 117 -170 0 -57 -11 -85 -51
-131 -84 -95 -251 -150 -346 -114 -65 24 -113 99 -113 177 0 94 93 189 227
232 69 22 115 24 166 6z"/>
<path d="M10323 4237 c-114 -124 -150 -276 -94 -402 53 -121 194 -231 381
-301 95 -35 223 -40 281 -11 95 47 162 157 168 275 3 63 0 80 -24 127 -68 139
-283 226 -409 166 -79 -39 -145 -135 -146 -214 0 -34 -2 -37 -19 -27 -32 17
-64 79 -64 124 0 52 23 97 79 151 l44 43 -67 48 c-38 26 -73 51 -79 56 -7 5
-26 -8 -51 -35z m78 -56 l23 -19 -27 -36 c-97 -127 -70 -262 70 -355 48 -32
68 -37 92 -22 11 7 12 13 4 23 -42 53 -36 134 16 205 71 98 198 100 334 6 44
-30 82 -91 92 -145 9 -50 -17 -136 -58 -190 -86 -112 -209 -117 -411 -17 -221
110 -316 262 -261 418 16 46 82 151 95 151 4 0 18 -8 31 -19z"/>
<path d="M10676 3940 c-76 -23 -117 -111 -82 -178 40 -77 172 -138 241 -112
67 25 107 93 91 155 -21 83 -164 160 -250 135z m95 -65 c94 -33 130 -110 73
-154 -34 -27 -57 -26 -120 3 -84 39 -107 94 -59 141 28 29 47 31 106 10z"/>
<path d="M9923 3460 c-104 -52 -195 -175 -209 -282 -13 -97 40 -194 132 -238
38 -19 57 -22 115 -18 l69 5 0 -30 c0 -173 203 -287 359 -202 65 36 132 109
174 190 27 51 31 71 32 135 0 85 -14 118 -73 176 -66 65 -163 93 -243 71 -25
-6 -27 -4 -32 35 -7 51 -49 113 -105 152 -64 45 -138 47 -219 6z m189 -55 c57
-38 83 -89 81 -157 -1 -69 13 -78 78 -48 55 24 93 25 144 1 117 -55 154 -165
96 -286 -39 -82 -91 -139 -156 -171 -67 -32 -115 -29 -182 13 -63 39 -83 80
-83 171 0 83 -7 91 -63 67 -20 -8 -61 -15 -90 -15 -65 0 -124 37 -151 95 -36
74 -3 185 79 269 84 87 176 110 247 61z"/>
<path d="M9928 3313 c-59 -37 -85 -131 -53 -193 33 -65 111 -75 203 -27 46 24
47 26 50 76 4 61 -24 118 -68 144 -36 22 -97 21 -132 0z m122 -71 c11 -13 20
-39 20 -57 0 -27 -5 -34 -39 -49 -49 -23 -79 -18 -104 16 -19 26 -19 27 -1 64
32 65 85 76 124 26z"/>
<path d="M10268 3110 c-14 -4 -45 -18 -67 -31 -35 -19 -41 -28 -47 -66 -17
-115 82 -212 188 -183 43 12 91 63 108 114 22 66 -26 145 -101 166 -39 11 -44
11 -81 0z m104 -80 c25 -26 29 -36 24 -62 -25 -123 -186 -104 -186 22 0 27 6
34 43 50 59 27 84 25 119 -10z"/>
<path d="M1870 3264 c-315 -248 -335 -271 -335 -409 0 -74 3 -85 39 -154 48
-88 142 -187 211 -221 73 -35 170 -34 245 3 48 23 511 377 518 395 1 4 -27 45
-63 90 -46 58 -70 80 -79 75 -7 -4 -102 -78 -210 -163 -223 -176 -261 -200
-322 -200 -78 0 -144 87 -123 163 13 49 57 90 287 270 111 88 202 161 202 163
0 4 -132 174 -134 174 -1 -1 -107 -84 -236 -186z m280 35 c7 -13 -29 -46 -192
-175 -112 -88 -214 -178 -231 -201 -60 -84 -45 -189 38 -261 42 -37 71 -46
129 -40 68 8 117 39 321 199 l190 150 33 -37 c17 -21 32 -40 32 -43 -1 -12
-411 -327 -457 -351 -60 -31 -149 -34 -205 -6 -59 29 -145 123 -183 199 -57
114 -44 208 42 290 22 21 127 107 234 192 l194 154 23 -27 c13 -15 27 -34 32
-43z"/>
<path d="M9392 2841 l-61 -69 -16 -153 c-8 -85 -15 -161 -15 -170 0 -13 15
-18 73 -23 39 -4 82 -10 94 -13 20 -4 22 0 29 66 3 39 9 71 11 71 3 0 100 -93
216 -206 l211 -207 73 77 c40 43 73 81 73 85 0 7 -567 563 -605 593 -22 17
-23 16 -83 -51z m340 -277 c144 -141 264 -259 266 -263 1 -4 -13 -22 -32 -40
l-35 -34 -118 111 c-65 61 -170 163 -233 226 -63 64 -118 116 -121 116 -4 0
-10 -45 -14 -100 l-7 -100 -33 0 c-19 0 -36 4 -39 8 -2 4 1 65 8 135 12 124
13 128 46 162 19 19 37 35 41 35 4 0 126 -115 271 -256z"/>
<path d="M2479 2340 c-151 -182 -274 -335 -274 -340 0 -11 140 -130 154 -130
5 0 81 86 167 190 86 105 159 188 161 186 3 -2 -24 -129 -58 -281 l-63 -277
21 -16 c12 -10 55 -45 95 -79 l75 -62 277 335 c153 184 276 338 274 343 -4 11
-148 131 -156 131 -4 -1 -79 -88 -167 -195 -87 -107 -160 -193 -162 -191 -2 1
24 121 57 266 33 144 60 270 60 280 0 15 -167 170 -183 170 -2 0 -128 -149
-278 -330z m370 182 l33 -29 -75 -334 c-73 -320 -76 -335 -59 -352 18 -17 26
-9 207 210 104 125 192 232 196 237 7 8 79 -42 79 -56 0 -8 -470 -572 -480
-576 -4 -1 -32 18 -64 44 -37 31 -55 52 -52 63 8 27 146 643 146 652 0 5 -9
13 -19 19 -17 9 -42 -17 -211 -220 -105 -127 -195 -230 -199 -230 -4 0 -22 13
-40 28 l-34 28 243 292 242 292 27 -20 c14 -11 41 -32 60 -48z"/>
<path d="M3440 1753 c-79 -153 -169 -328 -202 -390 l-59 -112 149 -75 c197
-99 264 -120 372 -121 77 0 92 3 152 33 188 93 307 369 238 554 -24 66 -85
140 -159 195 -43 33 -331 193 -346 193 -1 0 -67 -125 -145 -277z m304 130
c107 -56 144 -81 202 -138 81 -80 104 -131 104 -232 0 -114 -77 -269 -168
-339 -80 -61 -175 -77 -287 -49 -64 16 -337 144 -333 156 9 23 344 669 347
669 2 0 62 -30 135 -67z"/>
<path d="M3617 1737 c-106 -199 -227 -436 -227 -442 0 -3 39 -25 86 -47 75
-36 96 -42 153 -42 219 -1 375 249 278 446 -34 68 -76 107 -167 153 l-69 35
-54 -103z m143 -9 c37 -22 64 -49 85 -82 59 -96 33 -243 -58 -323 -51 -44
-117 -67 -175 -60 -48 6 -142 44 -142 58 0 13 223 439 229 439 4 0 31 -15 61
-32z"/>
<path d="M8190 1895 c-41 -15 -139 -61 -217 -103 l-143 -76 46 -85 c25 -47
118 -222 207 -388 l162 -302 85 46 c191 103 247 140 316 209 87 87 116 152
117 259 0 124 -87 309 -181 383 -76 60 -120 76 -222 79 -82 3 -105 0 -170 -22z
m283 -58 c97 -40 200 -188 227 -324 23 -114 -21 -220 -124 -306 -62 -52 -83
-65 -208 -133 -98 -52 -99 -52 -112 -31 -30 49 -347 649 -344 651 19 14 230
121 270 137 60 23 155 38 208 31 19 -3 56 -14 83 -25z"/>
<path d="M8190 1756 c-51 -19 -138 -64 -145 -75 -4 -8 263 -522 281 -541 3 -2
35 11 71 30 136 72 199 172 190 301 -8 122 -99 247 -204 283 -55 19 -144 20
-193 2z m197 -67 c114 -55 176 -222 124 -334 -20 -44 -66 -90 -123 -124 l-36
-21 -114 212 c-62 117 -114 219 -116 226 -2 7 20 23 50 37 69 32 154 34 215 4z"/>
<path d="M9012 1650 c-46 -32 -85 -60 -88 -63 -6 -6 114 -177 124 -177 12 0
172 113 172 122 0 9 -107 165 -118 172 -4 2 -44 -22 -90 -54z m103 -62 l28
-41 -34 -28 c-19 -16 -39 -29 -45 -29 -6 0 -23 18 -38 40 l-26 40 41 30 c23
16 43 30 44 30 1 0 15 -19 30 -42z"/>
<path d="M4376 1222 c-61 -207 -115 -395 -122 -418 l-12 -40 252 -73 c138 -40
255 -74 260 -75 11 -1 58 154 52 170 -2 6 -65 28 -140 49 -74 21 -140 41 -146
45 -15 9 29 160 47 160 8 0 67 -16 132 -35 65 -19 122 -35 128 -35 5 0 21 39
35 86 l26 85 -22 8 c-11 5 -73 23 -136 41 -63 19 -116 35 -118 36 -5 3 29 118
38 127 4 5 71 -10 148 -32 77 -23 144 -41 149 -41 9 0 53 137 53 163 0 9 -80
37 -244 85 -135 40 -251 72 -258 72 -9 0 -51 -130 -122 -378z m361 251 l195
-57 -6 -30 c-4 -16 -8 -31 -11 -34 -2 -2 -68 15 -146 37 -78 23 -147 40 -153
38 -11 -5 -83 -234 -75 -241 2 -1 64 -20 137 -41 l134 -39 -6 -30 c-4 -16 -8
-31 -10 -34 -3 -2 -66 14 -141 36 l-136 40 -8 -21 c-18 -48 -72 -249 -68 -253
2 -3 67 -23 143 -45 76 -23 143 -44 147 -48 12 -12 -3 -61 -19 -61 -17 0 -386
108 -392 115 -8 8 202 725 211 725 5 0 97 -26 204 -57z"/>
<path d="M7003 1457 c-50 -12 -94 -24 -96 -27 -6 -6 -140 -921 -135 -925 2 -2
53 8 113 23 l110 27 11 87 c7 47 14 92 16 99 4 12 219 67 265 68 17 1 35 -18
74 -76 29 -43 53 -79 54 -80 4 -6 235 52 233 58 -2 4 -120 178 -263 388 -154
225 -266 380 -275 380 -8 0 -56 -10 -107 -22z m337 -396 c154 -226 209 -315
200 -321 -17 -10 -89 -22 -99 -15 -5 2 -30 38 -57 80 -27 41 -53 75 -59 75
-17 0 -347 -78 -352 -84 -3 -2 -11 -45 -17 -95 -7 -50 -15 -94 -19 -97 -8 -8
-89 -26 -94 -20 -2 2 22 183 54 402 l58 399 70 16 c68 15 70 15 86 -5 8 -12
111 -162 229 -335z"/>
<path d="M7033 1288 c-11 -14 -57 -398 -48 -406 4 -4 282 56 297 64 10 6 -209
348 -225 352 -8 2 -18 -3 -24 -10z m157 -296 c0 -5 -26 -15 -57 -22 -32 -7
-64 -15 -72 -18 -12 -4 -13 8 -7 74 4 43 10 96 13 118 l6 38 58 -91 c33 -50
59 -95 59 -99z"/>
<path d="M5310 1378 c0 -7 -16 -202 -34 -433 -22 -267 -31 -422 -25 -426 5 -3
85 -11 177 -18 196 -14 285 -6 377 38 86 40 130 82 170 164 85 174 68 395 -40
515 -79 87 -190 132 -373 151 -219 22 -252 23 -252 9z m210 -63 c300 -22 434
-123 447 -337 12 -187 -55 -326 -185 -386 -84 -38 -169 -47 -332 -34 -78 6
-143 12 -144 14 -4 4 54 730 59 746 3 9 16 11 37 8 18 -3 71 -8 118 -11z"/>
<path d="M5442 967 c-13 -155 -22 -294 -22 -309 0 -26 2 -26 84 -33 212 -18
348 103 350 310 1 68 -3 88 -27 137 -52 105 -143 160 -288 171 l-75 6 -22
-282z m246 176 c28 -17 59 -48 77 -77 27 -44 30 -58 30 -130 0 -63 -5 -90 -22
-121 -48 -90 -126 -135 -234 -135 -55 0 -59 2 -59 23 0 33 30 417 35 453 l5
30 61 -7 c40 -5 76 -17 107 -36z"/>
<path d="M7805 1014 c-49 -19 -91 -37 -93 -39 -3 -3 65 -192 73 -203 2 -3 196
67 203 74 8 6 -72 204 -82 203 -6 0 -51 -16 -101 -35z m96 -90 l17 -45 -26
-10 c-67 -26 -77 -24 -90 18 -6 21 -12 43 -13 48 -1 10 83 46 91 38 2 -2 12
-24 21 -49z"/>
</g>
</svg>
