<svg xmlns="http://www.w3.org/2000/svg" xmlns:xlink="http://www.w3.org/1999/xlink" version="1.1" x="0px" y="0px" viewBox="0 0 100 100" enable-background="new 0 0 100 100" xml:space="preserve"><path d="M65.193,36.962h-0.128l-21.385-3.46l3.09,12.498v0.197c0,0.54,0.441,0.979,0.98,0.979l17.442,0  c0.541,0,0.979-0.441,0.979-0.979v-8.255C66.173,37.4,65.732,36.962,65.193,36.962z"></path><path d="M83.42,42.006c1.411-3.235,1.998-4.545,1.65-9.394c-0.565-7.881-3.885-14.797-7.973-19.458  C66.777,1.388,39.164,1.636,27.234,11.988c-5.861,5.084-12.032,13.047-12.243,23.172c-0.267,12.797,5.456,21.061,10.712,29.077  c1.683,2.564,3.964,5.666,4.372,8.744c0.85,6.426-0.081,11.674-2.775,15.74c-1.888,2.85-3.598,5.33-5.4,7.564h42.706  c-2.104-3.879-2.847-10.273,0.078-10.266c4.332,0.125,7.42,1.17,11.74,0.516c3.262-0.495,5.276-1.393,5.903-4.372  c0.733-3.489-1.201-3.955-0.875-5.685c0.448-2.387,1.917-3.572,2.661-6.34c1.011-3.763-0.848-6.039,0.746-6.809  c2.104-1.32,3.938-1.238,5.773-3.029C93.668,57.455,81.771,46.229,83.42,42.006z M49.842,57.03c-1.407,0-2.548-1.141-2.548-2.548  c0-1.408,1.141-2.548,2.548-2.548c1.408,0,2.55,1.14,2.55,2.548C52.392,55.89,51.25,57.03,49.842,57.03z M60.159,57.03  c-1.407,0-2.55-1.141-2.55-2.548c0-1.408,1.143-2.548,2.55-2.548s2.548,1.141,2.548,2.548C62.707,55.891,61.566,57.03,60.159,57.03z   M69.381,46.196c0,2.309-1.877,4.188-4.188,4.188l-17.442,0c-2.235-0.001-4.068-1.763-4.182-3.97l-4.362-17.636l0.032-0.007  c-0.93-3.152-1.917-3.152-3.284-3.152v-3.21c3.951,0,5.691,1.896,6.919,7.711l22.464,3.633c2.242,0.078,4.043,1.926,4.043,4.188  V46.196z"></path></svg>