<svg xmlns="http://www.w3.org/2000/svg" xmlns:xlink="http://www.w3.org/1999/xlink" version="1.1" x="0px" y="0px" viewBox="0 0 32 32" style="enable-background:new 0 0 32 32;" xml:space="preserve"><g><path d="M28.2,25.5H3.8c-0.6,0-1,0.5-1,1V31c0,0.5,0.4,1,1,1h24.4c0.6,0,1-0.5,1-1v-4.5C29.2,26,28.8,25.5,28.2,25.5z"></path><path d="M8.9,10.1c0.5-0.5,1.3-0.5,1.7,0c0.5,0.5,0.5,1.3,0,1.7c-0.4,0.4-0.4,1,0,1.4s1,0.4,1.4,0c1-1,1.2-2.5,0.6-3.7   c0,0,0.1,0,0.1-0.1L16.1,6C17,6.5,18,6.5,19,6c0.2,0.2,3.2,3.3,3.5,3.5c-0.5,0.9-0.5,2,0,2.9L16,18.9h-3.4c-0.3,0-0.6,0.2-0.8,0.4   L9,23.5h14l-2.8-4.2c-0.2-0.3-0.5-0.4-0.8-0.4h-0.5l5-5c0.4,0.2,0.9,0.4,1.5,0.4c1.8,0,3.2-1.4,3.2-3.2s-1.5-3.2-3.2-3.2   c-0.5,0-1,0.1-1.5,0.4c-0.2-0.2-3.2-3.3-3.5-3.5c0.2-0.4,0.4-0.9,0.4-1.4c0-1.8-1.4-3.2-3.2-3.2s-3.2,1.4-3.2,3.2   c0,0.5,0.1,1,0.4,1.5l-3.4,3.4c0,0,0,0.1-0.1,0.1C10,7.6,8.5,7.7,7.5,8.7c-0.4,0.4-0.4,1,0,1.4C7.9,10.5,8.5,10.5,8.9,10.1z"></path></g></svg>