<svg xmlns="http://www.w3.org/2000/svg" xmlns:xlink="http://www.w3.org/1999/xlink" version="1.1" x="0px" y="0px" viewBox="0 0 100 100" enable-background="new 0 0 100 100" xml:space="preserve"><g><path fill="none" d="M50,17.5c-1.1,0-2,0.9-2,2s0.9,2,2,2c15.7,0,28.5,12.8,28.5,28.5S65.7,78.5,50,78.5S21.5,65.7,21.5,50   c0-1.1-0.9-2-2-2c-1.1,0-2,0.9-2,2c0,17.9,14.6,32.5,32.5,32.5S82.5,67.9,82.5,50C82.5,32.1,67.9,17.5,50,17.5z"></path><path fill="none" d="M50,75.6c14.1,0,25.6-11.5,25.6-25.6c0-1.1-0.9-2-2-2c-1.1,0-2,0.9-2,2c0,11.9-9.6,21.5-21.5,21.5   S28.5,61.9,28.5,50c0-11.9,9.6-21.5,21.5-21.5c1.1,0,2-0.9,2-2c0-1.1-0.9-2-2-2c-14.1,0-25.6,11.5-25.6,25.6   C24.4,64.1,35.9,75.6,50,75.6z"></path><path fill="none" d="M50,64.4c-7.9,0-14.4-6.5-14.4-14.4c0-1.1-0.9-2-2-2s-2,0.9-2,2c0,10.2,8.3,18.4,18.4,18.4   c10.2,0,18.4-8.3,18.4-18.4c0-10.2-8.3-18.4-18.4-18.4c-1.1,0-2,0.9-2,2c0,1.1,0.9,2,2,2c7.9,0,14.4,6.5,14.4,14.4   S57.9,64.4,50,64.4z"></path><path d="M76.8,9.7H23.2c-7.4,0-13.5,6.1-13.5,13.5v53.7c0,7.4,6.1,13.5,13.5,13.5h53.7c7.4,0,13.5-6.1,13.5-13.5V23.2   C90.3,15.7,84.3,9.7,76.8,9.7z M50,82.5c-17.9,0-32.5-14.6-32.5-32.5c0-1.1,0.9-2,2-2c1.1,0,2,0.9,2,2c0,15.7,12.8,28.5,28.5,28.5   S78.5,65.7,78.5,50S65.7,21.5,50,21.5c-1.1,0-2-0.9-2-2s0.9-2,2-2c17.9,0,32.5,14.6,32.5,32.5C82.5,67.9,67.9,82.5,50,82.5z    M50,24.4c1.1,0,2,0.9,2,2c0,1.1-0.9,2-2,2c-11.9,0-21.5,9.6-21.5,21.5c0,11.9,9.6,21.5,21.5,21.5S71.5,61.9,71.5,50   c0-1.1,0.9-2,2-2c1.1,0,2,0.9,2,2c0,14.1-11.5,25.6-25.6,25.6S24.4,64.1,24.4,50C24.4,35.9,35.9,24.4,50,24.4z M50,35.6   c-1.1,0-2-0.9-2-2c0-1.1,0.9-2,2-2c10.2,0,18.4,8.3,18.4,18.4c0,10.2-8.3,18.4-18.4,18.4c-10.2,0-18.4-8.3-18.4-18.4   c0-1.1,0.9-2,2-2s2,0.9,2,2c0,7.9,6.5,14.4,14.4,14.4S64.4,57.9,64.4,50S57.9,35.6,50,35.6z"></path></g></svg>