<?xml version="1.0" encoding="UTF-8"?>
<svg width="2106px" height="616px" viewBox="0 0 2106 616" version="1.1" xmlns="http://www.w3.org/2000/svg" xmlns:xlink="http://www.w3.org/1999/xlink">
    <!-- Generator: Sketch 47.1 (45422) - http://www.bohemiancoding.com/sketch -->
    <title>logo</title>
    <desc>Created with Sketch.</desc>
    <defs>
        <polygon id="path-1" points="0 0 212.63388 0 425.26776 528 212.63388 528"></polygon>
        <filter x="-15.5%" y="-12.5%" width="125.4%" height="120.5%" filterUnits="objectBoundingBox" id="filter-2">
            <feOffset dx="-12" dy="-12" in="SourceAlpha" result="shadowOffsetOuter1"></feOffset>
            <feGaussianBlur stdDeviation="16" in="shadowOffsetOuter1" result="shadowBlurOuter1"></feGaussianBlur>
            <feColorMatrix values="0 0 0 0 0   0 0 0 0 0   0 0 0 0 0  0 0 0 0.5 0" type="matrix" in="shadowBlurOuter1"></feColorMatrix>
        </filter>
        <polygon id="path-3" points="425.26776 0 637.901639 0 850.535519 528 637.901639 528"></polygon>
        <filter x="-15.5%" y="-12.5%" width="125.4%" height="120.5%" filterUnits="objectBoundingBox" id="filter-4">
            <feOffset dx="-12" dy="-12" in="SourceAlpha" result="shadowOffsetOuter1"></feOffset>
            <feGaussianBlur stdDeviation="16" in="shadowOffsetOuter1" result="shadowBlurOuter1"></feGaussianBlur>
            <feColorMatrix values="0 0 0 0 0   0 0 0 0 0   0 0 0 0 0  0 0 0 0.5 0" type="matrix" in="shadowBlurOuter1"></feColorMatrix>
        </filter>
        <filter x="-9.7%" y="-12.5%" width="115.9%" height="120.5%" filterUnits="objectBoundingBox" id="filter-5">
            <feOffset dx="-12" dy="-12" in="SourceAlpha" result="shadowOffsetOuter1"></feOffset>
            <feGaussianBlur stdDeviation="16" in="shadowOffsetOuter1" result="shadowBlurOuter1"></feGaussianBlur>
            <feColorMatrix values="0 0 0 0 0   0 0 0 0 0   0 0 0 0 0  0 0 0 0.5 0" type="matrix" in="shadowBlurOuter1" result="shadowMatrixOuter1"></feColorMatrix>
            <feMerge>
                <feMergeNode in="shadowMatrixOuter1"></feMergeNode>
                <feMergeNode in="SourceGraphic"></feMergeNode>
            </feMerge>
        </filter>
        <filter x="-9.7%" y="-12.5%" width="115.8%" height="120.5%" filterUnits="objectBoundingBox" id="filter-6">
            <feOffset dx="-12" dy="-12" in="SourceAlpha" result="shadowOffsetOuter1"></feOffset>
            <feGaussianBlur stdDeviation="16" in="shadowOffsetOuter1" result="shadowBlurOuter1"></feGaussianBlur>
            <feColorMatrix values="0 0 0 0 0   0 0 0 0 0   0 0 0 0 0  0 0 0 0.5 0" type="matrix" in="shadowBlurOuter1" result="shadowMatrixOuter1"></feColorMatrix>
            <feMerge>
                <feMergeNode in="shadowMatrixOuter1"></feMergeNode>
                <feMergeNode in="SourceGraphic"></feMergeNode>
            </feMerge>
        </filter>
    </defs>
    <g id="Page-1" stroke="none" stroke-width="1" fill="none" fill-rule="evenodd">
        <g id="logo" transform="translate(41.000000, 44.000000)">
            <g id="Group-3">
                <polygon id="Rectangle-3" fill="#525860" transform="translate(425.267760, 264.000000) scale(-1, -1) translate(-425.267760, -264.000000) " points="212.63388 0 425.26776 0 637.901639 528 425.26776 528"></polygon>
                <polygon id="Rectangle-3" fill="#525860" transform="translate(850.535519, 264.000000) scale(-1, -1) translate(-850.535519, -264.000000) " points="637.901639 0 850.535519 0 1063.1694 528 850.535519 528"></polygon>
                <g id="Rectangle-3" transform="translate(212.633880, 264.000000) scale(1, -1) translate(-212.633880, -264.000000) ">
                    <use fill="black" fill-opacity="1" filter="url(#filter-2)" xlink:href="#path-1"></use>
                    <use fill="#525860" fill-rule="evenodd" xlink:href="#path-1"></use>
                </g>
                <g id="Rectangle-3" transform="translate(637.901639, 264.000000) scale(1, -1) translate(-637.901639, -264.000000) ">
                    <use fill="black" fill-opacity="1" filter="url(#filter-4)" xlink:href="#path-3"></use>
                    <use fill="#862019" fill-rule="evenodd" xlink:href="#path-3"></use>
                </g>
            </g>
            <g id="Group-6" filter="url(#filter-5)" transform="translate(850.535519, 0.000000)" fill="#862019">
                <polygon id="Rectangle" points="212.63388 0 425.26776 0 212.63388 528 0 528"></polygon>
                <polygon id="Rectangle-5" transform="translate(374.907104, 443.744681) scale(1, -1) translate(-374.907104, -443.744681) " points="212.63388 359.489362 471.868723 359.489362 537.180328 528 212.63388 528"></polygon>
                <polygon id="Rectangle-5" transform="translate(520.393443, 84.255319) scale(1, -1) translate(-520.393443, -84.255319) " points="358.120219 0 617.355062 0 682.666667 168.510638 358.120219 168.510638"></polygon>
            </g>
            <g id="Group-6" filter="url(#filter-6)" transform="translate(1365.333333, 0.000000)" fill="#862019">
                <polygon id="Rectangle" points="212.63388 0 425.26776 0 212.63388 528 -2.27373675e-13 528"></polygon>
                <polygon id="Rectangle-5" transform="translate(374.907104, 443.744681) scale(1, -1) translate(-374.907104, -443.744681) " points="212.63388 359.489362 471.868723 359.489362 537.180328 528 212.63388 528"></polygon>
                <polygon id="Rectangle-5" transform="translate(520.393443, 84.255319) scale(1, -1) translate(-520.393443, -84.255319) " points="358.120219 0 617.355062 0 682.666667 168.510638 358.120219 168.510638"></polygon>
            </g>
            <rect id="Rectangle-11" fill="#862019" x="1151" y="1" width="316" height="168"></rect>
            <rect id="Rectangle-11" fill="#862019" x="1666" y="1" width="316" height="168"></rect>
        </g>
    </g>
</svg>