<svg xmlns="http://www.w3.org/2000/svg" data-name="Layer 2" viewBox="0 0 100 100" x="0px" y="0px"><title>etc4</title><path d="M26.26,60.27a6.27,6.27,0,1,0,6.27,6.27A6.28,6.28,0,0,0,26.26,60.27Zm0,10.55a4.27,4.27,0,1,1,4.27-4.27A4.28,4.28,0,0,1,26.26,70.82Z"></path><path d="M26.27,73.23a7.62,7.62,0,0,0-7.61,7.61v3a1,1,0,0,0,2,0v-3a5.61,5.61,0,1,1,11.23,0v3a1,1,0,0,0,2,0v-3A7.62,7.62,0,0,0,26.27,73.23Z"></path><path d="M36.47,66.54a6.27,6.27,0,1,0,6.27-6.27A6.28,6.28,0,0,0,36.47,66.54Zm10.55,0a4.27,4.27,0,1,1-4.27-4.27A4.28,4.28,0,0,1,47,66.54Z"></path><path d="M42.76,73.23a7.62,7.62,0,0,0-7.61,7.61v3a1,1,0,0,0,2,0v-3a5.61,5.61,0,1,1,11.23,0v3a1,1,0,0,0,2,0v-3A7.62,7.62,0,0,0,42.76,73.23Z"></path><path d="M53,66.54a6.27,6.27,0,1,0,6.27-6.27A6.28,6.28,0,0,0,53,66.54Zm10.55,0a4.27,4.27,0,1,1-4.27-4.27A4.28,4.28,0,0,1,63.51,66.54Z"></path><path d="M59.24,73.23a7.62,7.62,0,0,0-7.61,7.61v3a1,1,0,0,0,2,0v-3a5.61,5.61,0,1,1,11.23,0v3a1,1,0,1,0,2,0v-3A7.62,7.62,0,0,0,59.24,73.23Z"></path><path d="M69.45,66.54a6.27,6.27,0,1,0,6.27-6.27A6.28,6.28,0,0,0,69.45,66.54Zm10.55,0a4.27,4.27,0,1,1-4.27-4.27A4.28,4.28,0,0,1,80,66.54Z"></path><path d="M75.73,73.23a7.62,7.62,0,0,0-7.61,7.61v3a1,1,0,1,0,2,0v-3a5.61,5.61,0,1,1,11.23,0v3a1,1,0,0,0,2,0v-3A7.62,7.62,0,0,0,75.73,73.23Z"></path><path d="M18.65,55a5.61,5.61,0,0,1,9.5-4l0,0a5.59,5.59,0,0,1,1.69,4v3a1,1,0,0,0,2,0V55a7.56,7.56,0,0,0-1-3.73h46.9a1,1,0,0,0,1-1V16.13a1,1,0,0,0-1-1H24.21a1,1,0,0,0-1,1V34.57a6.28,6.28,0,1,0,2,0V17.13H76.79V49.32H29.26A7.6,7.6,0,0,0,16.65,55v3a1,1,0,0,0,2,0V55Zm9.88-14.3a4.27,4.27,0,1,1-4.27-4.27A4.28,4.28,0,0,1,28.53,40.75Z"></path><path d="M46.15,26.91a1,1,0,0,0-1.41,0L32.79,38.85a1,1,0,1,0,1.41,1.41L45.45,29l10,10a1,1,0,0,0,1.41,0L68.26,27.71l1.9,1.9,1.91-7.13-7.13,1.91,1.9,1.9L56.19,36.94Z"></path></svg>