<svg xmlns="http://www.w3.org/2000/svg" xmlns:xlink="http://www.w3.org/1999/xlink" version="1.1" x="0px" y="0px" viewBox="0 0 100 100" style="enable-background:new 0 0 100 100;" xml:space="preserve"><g><path d="M56.9,89c0-1.7,1.1-2,2.1-2h2V73c0-0.8,0.7-1.9,1.5-2.4c8.1-4.5,13.2-13.1,13.2-22.4c0-7-2.9-13.9-8.1-18.7   c-5.2-4.9-12-7.4-19.2-6.9c-13,0.8-23.6,11.7-24,24.8c-0.3,9.6,4.7,18.5,13.2,23.2c0.8,0.5,1.5,1.5,1.5,2.4v14h2   c0.9,0,2.1,0.3,2.1,2v1h13.9V89z M59,82.1H41V80h18V82.1z M59,78H41v-2h18V78z M38.5,68.9c-7.8-4.3-12.4-12.5-12.1-21.4   c0.4-12.1,10.1-22.1,22.1-22.8c6.6-0.4,12.9,1.8,17.7,6.4c4.8,4.5,7.5,10.6,7.5,17.2c0,8.6-4.7,16.5-12.2,20.7   C60,69.7,59,71.4,59,73v1H41v-1C41,71.4,40,69.7,38.5,68.9z M55,88H45c-0.4-1.9-1.8-3-4-3v-0.9h18V85C56.9,85,55.4,86.1,55,88z"></path><path d="M50,29.4c-10.4,0-18.8,8.5-18.8,18.8h2c0-9.3,7.6-16.8,16.8-16.8V29.4z"></path><rect x="81" y="48" width="9" height="2"></rect><rect x="10" y="48" width="9" height="2"></rect><rect x="49" y="8" width="2" height="9"></rect><rect x="70.7" y="22.3" transform="matrix(0.7071 -0.7071 0.7071 0.7071 5.5032 59.9731)" width="8.9" height="2"></rect><rect x="20.4" y="72.6" transform="matrix(0.7071 -0.7071 0.7071 0.7071 -44.7828 39.1452)" width="8.9" height="2"></rect><rect x="23.9" y="18.9" transform="matrix(0.7071 -0.7071 0.7071 0.7071 -9.2259 24.4135)" width="2" height="8.9"></rect><rect x="74.1" y="69.2" transform="matrix(0.7071 -0.7071 0.7071 0.7071 -30.0539 74.694)" width="2" height="8.9"></rect></g></svg>