<svg xmlns="http://www.w3.org/2000/svg" xmlns:xlink="http://www.w3.org/1999/xlink" version="1.1" x="0px" y="0px" viewBox="0 0 108 108" xml:space="preserve"><path d="M126,103H2c-1.104,0-2-0.9-2-2.014C0,99.875,0.896,99,2,99h124c1.104,0,2,0.875,2,1.986C128,102.1,127.104,103,126,103z"></path><path d="M111.197,49.587l-19.193-15.25l-5.379,4.332c-0.434,0.348-1.061,0.275-1.406-0.157c-0.345-0.435-0.273-1.067,0.156-1.416  l6.621-5.33l18.807,14.944l15.389-21.295c0.324-0.451,0.949-0.549,1.396-0.223c0.447,0.326,0.546,0.957,0.221,1.406L111.197,49.587z  "></path><polygon points="61.296,58.349 60.005,56.812 63.139,54.146 64.43,55.683 "></polygon><polygon points="75.861,47.184 74.57,45.646 77.704,42.98 78.995,44.518 "></polygon><path d="M76,45.934"></path><path d="M65,54.792"></path><path d="M65,54.792"></path><path d="M62,57.206"></path><path d="M1,80.689c-0.279,0-0.557-0.116-0.755-0.348c-0.362-0.419-0.318-1.056,0.099-1.42L28.965,53.89L46.991,68l5.384-4.336  c0.433-0.347,1.06-0.276,1.406,0.157c0.345,0.435,0.274,1.066-0.156,1.414l-6.616,5.328L29.035,56.496L1.656,80.443  C1.467,80.607,1.233,80.689,1,80.689z"></path><ellipse cx="29" cy="55.193" rx="3" ry="3.02"></ellipse><ellipse cx="46.5" cy="68.78" rx="3" ry="3.02"></ellipse><ellipse transform="matrix(-0.9988 -0.0497 0.0497 -0.9988 135.482 103.6438)" cx="69.03" cy="50.137" rx="5" ry="5.032"></ellipse><ellipse cx="92" cy="33.052" rx="3" ry="3.02"></ellipse><ellipse cx="110.5" cy="47.646" rx="3" ry="3.019"></ellipse><path d="M69.139,36.014c7.721,0,14,6.321,14,14.091s-6.279,14.09-14,14.09c-7.72,0-14-6.32-14-14.09S61.419,36.014,69.139,36.014   M69.139,31.988c-9.939,0-18,8.11-18,18.116c0,10.005,8.059,18.116,18,18.116c9.941,0,18-8.111,18-18.116  S79.08,31.988,69.139,31.988L69.139,31.988z"></path><path d="M94.001,81.361c-0.569,0-1.136-0.244-1.53-0.719L78.357,63.752c-0.711-0.85-0.604-2.12,0.242-2.835  c0.849-0.717,2.107-0.606,2.817,0.244l14.112,16.89c0.712,0.852,0.604,2.12-0.242,2.838C94.912,81.206,94.455,81.361,94.001,81.361z  "></path></svg>
